{"asset":{"version":"2.0","generator":"Microsoft GLTF Exporter 2.4.2.5"},"accessors":[{"bufferView":0,"componentType":5123,"count":8304,"type":"SCALAR","byteOffset":0},{"bufferView":1,"componentType":5123,"count":48,"type":"SCALAR","byteOffset":0},{"bufferView":2,"componentType":5126,"count":1687,"type":"VEC3","max":[9.494118690490723,5.109735012054443,0.018848000094294548],"min":[-9.494123458862305,-22.243200302124023,-22.341854095458984],"byteOffset":0},{"bufferView":3,"componentType":5126,"count":48,"type":"VEC3","max":[2.2605509757995605,2.957271099090576,-18.135204315185547],"min":[-2.2605509757995605,1.1613999605178833,-19.691608428955078],"byteOffset":0},{"bufferView":4,"componentType":5126,"count":1687,"type":"VEC3","byteOffset":0},{"bufferView":5,"componentType":5126,"count":48,"type":"VEC3","byteOffset":0},{"bufferView":6,"componentType":5126,"count":1687,"type":"VEC2","byteOffset":0},{"bufferView":7,"componentType":5126,"count":48,"type":"VEC2","byteOffset":0}],"bufferViews":[{"buffer":0,"byteOffset":0,"byteLength":16608,"target":34963},{"buffer":0,"byteOffset":16608,"byteLength":96,"target":34963},{"buffer":0,"byteOffset":16704,"byteLength":20244,"target":34962},{"buffer":0,"byteOffset":36948,"byteLength":576,"target":34962},{"buffer":0,"byteOffset":37524,"byteLength":20244,"target":34962},{"buffer":0,"byteOffset":57768,"byteLength":576,"target":34962},{"buffer":0,"byteOffset":58344,"byteLength":13496,"target":34962},{"buffer":0,"byteOffset":71840,"byteLength":384,"target":34962},{"buffer":0,"byteOffset":72224,"byteLength":32856},{"buffer":0,"byteOffset":105080,"byteLength":37219},{"buffer":0,"byteOffset":142299,"byteLength":28278},{"buffer":0,"byteOffset":170577,"byteLength":7643},{"buffer":0,"byteOffset":178220,"byteLength":8383},{"buffer":0,"byteOffset":186603,"byteLength":6690}],"buffers":[{"byteLength":193296,"uri":"data:application/octet-stream;base64,"}],"images":[{"bufferView":8,"mimeType":"image/png"},{"bufferView":9,"mimeType":"image/png"},{"bufferView":10,"mimeType":"image/png"},{"bufferView":11,"mimeType":"image/png"},{"bufferView":12,"mimeType":"image/png"},{"bufferView":13,"mimeType":"image/png"}],"materials":[{"pbrMetallicRoughness":{"baseColorTexture":{"index":1},"metallicRoughnessTexture":{"index":2},"baseColorFactor":[1,1,1,1],"metallicFactor":1,"roughnessFactor":1},"alphaMode":"MASK","name":"52","doubleSided":true,"extensions":{"KHR_materials_pbrSpecularGlossiness":{"diffuseTexture":{"index":0},"specularFactor":[0.49803921580314636,0.49803921580314636,0.49803921580314636],"glossinessFactor":0.4745098054409027}},"extras":{"MSFT_sRGBFactors":true},"emissiveFactor":[0,0,0],"alphaCutoff":0.5},{"pbrMetallicRoughness":{"baseColorTexture":{"index":4},"metallicRoughnessTexture":{"index":5},"baseColorFactor":[1,1,1,1],"metallicFactor":1,"roughnessFactor":1},"alphaMode":"MASK","name":"53","doubleSided":true,"extensions":{"KHR_materials_pbrSpecularGlossiness":{"diffuseTexture":{"index":3},"specularFactor":[0.49803921580314636,0.49803921580314636,0.49803921580314636],"glossinessFactor":0.4745098054409027}},"extras":{"MSFT_sRGBFactors":true},"emissiveFactor":[0,0,0],"alphaCutoff":0.5}],"meshes":[{"name":"mesh_id4","primitives":[{"attributes":{"POSITION":2,"NORMAL":4,"TEXCOORD_0":6},"indices":0,"material":0,"mode":4}]},{"name":"mesh_id5","primitives":[{"attributes":{"POSITION":3,"NORMAL":5,"TEXCOORD_0":7},"indices":1,"material":1,"mode":4}]}],"nodes":[{"translation":[0.00004462786455405876,160.35452270507812,464.9241638183594],"scale":[18.71828269958496,18.71828269958496,18.71828269958496],"mesh":0,"rotation":[0,0,0,1]},{"translation":[0.00004462786455405876,160.35452270507812,464.9241638183594],"scale":[18.71828269958496,18.71828269958496,18.71828269958496],"mesh":1,"rotation":[0,0,0,1]},{"children":[0,1],"scale":[0.0010000000474974513,0.0010000000474974513,0.0010000000474974513],"name":"node_id6","translation":[0,0,0],"rotation":[0,0,0,1]},{"children":[2],"name":"root"}],"samplers":[{"minFilter":9985,"wrapS":10497,"wrapT":10497}],"scenes":[{"nodes":[3]}],"scene":0,"textures":[{"name":"texture5","sampler":0,"source":0},{"name":"52_bc","sampler":0,"source":1},{"name":"52_mr","sampler":0,"source":2},{"name":"texture6","sampler":0,"source":3},{"name":"53_bc","sampler":0,"source":4},{"name":"53_mr","sampler":0,"source":5}],"extensionsUsed":["KHR_materials_pbrSpecularGlossiness"]}
